<?xml version="1.0" encoding="utf-8"?>
<!-- Generator: Adobe Illustrator 23.0.3, SVG Export Plug-In . SVG Version: 6.00 Build 0)  -->
<svg version="1.1" id="Layer_1" xmlns="http://www.w3.org/2000/svg" xmlns:xlink="http://www.w3.org/1999/xlink" x="0px" y="0px"
	 viewBox="0 0 1280 500" style="enable-background:new 0 0 1280 500;" xml:space="preserve">
<style type="text/css">
	.st0{fill:#29ABE2;}
	.st1{fill:none;stroke:#FFFFFF;stroke-width:7;stroke-miterlimit:10;}
	.st2{fill:#FFFFFF;}
	.st3{opacity:0.41;fill:#29ABE2;enable-background:new    ;}
	.st4{opacity:0.46;fill:#29ABE2;enable-background:new    ;}
	.st5{fill:#0A86FF;stroke:#00749F;stroke-width:7;stroke-miterlimit:10;}
</style>
<g id="Layer_3">
</g>
<g id="Layer_1_1_">
	<path class="st0" d="M306.1,315.4H94.6c-6.6,0-12-5.4-12-12V91.9c0-6.6,5.4-12,12-12h211.5c6.6,0,12,5.4,12,12v211.5
		C318.1,310,312.7,315.4,306.1,315.4z"/>
</g>
<g>
	<circle class="st1" cx="191.8" cy="197.6" r="48.4"/>
</g>
<g id="Layer_4">
	<path class="st2" d="M220.4,197.6L185.6,215c-2.4,1.2-5.3-0.5-5.3-3.3v-28.2c0-2.7,2.8-4.5,5.3-3.3L220.4,197.6L220.4,197.6z"/>
	<rect x="807.7" y="112" class="st3" width="349.3" height="49.4"/>
	<rect x="361.8" y="109.3" class="st4" width="427.7" height="55.4"/>
</g>
<rect x="361.8" y="232.3" class="st5" width="795.2" height="53.7"/>
</svg>
